<?xml version="1.0" standalone="no"?>
<!DOCTYPE svg PUBLIC "-//W3C//DTD SVG 20010904//EN"
 "http://www.w3.org/TR/2001/REC-SVG-20010904/DTD/svg10.dtd">
<svg version="1.0" xmlns="http://www.w3.org/2000/svg"
 width="260.000000pt" height="260.000000pt" viewBox="0 0 260.000000 260.000000"
 preserveAspectRatio="xMidYMid meet">
<metadata>
Created by potrace 1.11, written by Peter Selinger 2001-2013
</metadata>
<g transform="translate(0.000000,260.000000) scale(0.100000,-0.100000)"
fill="#000000" stroke="none">
<path d="M1183 1572 c0 -812 -1 -829 -21 -874 -11 -26 -33 -55 -48 -65 -35
-23 -142 -27 -236 -9 -38 7 -68 10 -69 7 0 -3 -2 -14 -4 -24 -2 -10 -6 -46 -9
-80 -8 -97 -16 -179 -21 -214 l-5 -31 73 -17 c95 -23 265 -27 345 -10 179 39
288 134 355 307 l32 83 3 878 3 877 -199 0 -199 0 0 -828z"/>
</g>
</svg>
